<mxfile host="app.diagrams.net" modified="2024-05-29T05:46:55.764Z" agent="Mozilla/5.0 (Windows NT 10.0; Win64; x64) AppleWebKit/537.36 (KHTML, like Gecko) Chrome/125.0.0.0 Safari/537.36" etag="2gbEfQMkAhc5iBLnRrwN" version="24.4.9" type="device" pages="2">
  <diagram name="Halaman-1" id="eEcdNfaCjiQ7J_EbVO_X">
    <mxGraphModel dx="2389" dy="754" grid="1" gridSize="10" guides="1" tooltips="1" connect="1" arrows="1" fold="1" page="1" pageScale="1" pageWidth="827" pageHeight="1169" math="0" shadow="0">
      <root>
        <mxCell id="0" />
        <mxCell id="1" parent="0" />
        <mxCell id="T_nC6chkK_L7ADHdv6Io-1" value="/" style="ellipse;whiteSpace=wrap;html=1;aspect=fixed;fontSize=27;fontStyle=1" vertex="1" parent="1">
          <mxGeometry x="190" y="80" width="80" height="80" as="geometry" />
        </mxCell>
        <mxCell id="T_nC6chkK_L7ADHdv6Io-2" value="*" style="ellipse;whiteSpace=wrap;html=1;aspect=fixed;fontSize=27;fontStyle=1" vertex="1" parent="1">
          <mxGeometry x="70" y="190" width="80" height="80" as="geometry" />
        </mxCell>
        <mxCell id="T_nC6chkK_L7ADHdv6Io-3" value="a" style="ellipse;whiteSpace=wrap;html=1;aspect=fixed;fontSize=27;fontStyle=1" vertex="1" parent="1">
          <mxGeometry x="10" y="290" width="80" height="80" as="geometry" />
        </mxCell>
        <mxCell id="T_nC6chkK_L7ADHdv6Io-4" value="+" style="ellipse;whiteSpace=wrap;html=1;aspect=fixed;fontSize=27;fontStyle=1" vertex="1" parent="1">
          <mxGeometry x="120" y="290" width="80" height="80" as="geometry" />
        </mxCell>
        <mxCell id="T_nC6chkK_L7ADHdv6Io-5" value="b" style="ellipse;whiteSpace=wrap;html=1;aspect=fixed;fontSize=27;fontStyle=1" vertex="1" parent="1">
          <mxGeometry x="70" y="400" width="80" height="80" as="geometry" />
        </mxCell>
        <mxCell id="T_nC6chkK_L7ADHdv6Io-6" value="c" style="ellipse;whiteSpace=wrap;html=1;aspect=fixed;fontSize=27;fontStyle=1" vertex="1" parent="1">
          <mxGeometry x="170" y="400" width="80" height="80" as="geometry" />
        </mxCell>
        <mxCell id="T_nC6chkK_L7ADHdv6Io-7" value="+" style="ellipse;whiteSpace=wrap;html=1;aspect=fixed;fontSize=27;fontStyle=1" vertex="1" parent="1">
          <mxGeometry x="330" y="180" width="80" height="80" as="geometry" />
        </mxCell>
        <mxCell id="T_nC6chkK_L7ADHdv6Io-8" value="e" style="ellipse;whiteSpace=wrap;html=1;aspect=fixed;fontSize=27;fontStyle=1" vertex="1" parent="1">
          <mxGeometry x="270" y="280" width="80" height="80" as="geometry" />
        </mxCell>
        <mxCell id="T_nC6chkK_L7ADHdv6Io-9" value="-" style="ellipse;whiteSpace=wrap;html=1;aspect=fixed;fontSize=27;fontStyle=1" vertex="1" parent="1">
          <mxGeometry x="380" y="280" width="80" height="80" as="geometry" />
        </mxCell>
        <mxCell id="T_nC6chkK_L7ADHdv6Io-10" value="f" style="ellipse;whiteSpace=wrap;html=1;aspect=fixed;fontSize=27;fontStyle=1" vertex="1" parent="1">
          <mxGeometry x="330" y="390" width="80" height="80" as="geometry" />
        </mxCell>
        <mxCell id="T_nC6chkK_L7ADHdv6Io-11" value="g" style="ellipse;whiteSpace=wrap;html=1;aspect=fixed;fontSize=27;fontStyle=1" vertex="1" parent="1">
          <mxGeometry x="430" y="390" width="80" height="80" as="geometry" />
        </mxCell>
        <mxCell id="T_nC6chkK_L7ADHdv6Io-12" value="" style="endArrow=none;html=1;rounded=0;entryX=0;entryY=1;entryDx=0;entryDy=0;exitX=1;exitY=0;exitDx=0;exitDy=0;" edge="1" parent="1" source="T_nC6chkK_L7ADHdv6Io-2" target="T_nC6chkK_L7ADHdv6Io-1">
          <mxGeometry width="50" height="50" relative="1" as="geometry">
            <mxPoint x="440" y="330" as="sourcePoint" />
            <mxPoint x="490" y="280" as="targetPoint" />
          </mxGeometry>
        </mxCell>
        <mxCell id="T_nC6chkK_L7ADHdv6Io-13" value="" style="endArrow=none;html=1;rounded=0;entryX=0.5;entryY=0;entryDx=0;entryDy=0;exitX=0;exitY=1;exitDx=0;exitDy=0;" edge="1" parent="1" source="T_nC6chkK_L7ADHdv6Io-2" target="T_nC6chkK_L7ADHdv6Io-3">
          <mxGeometry width="50" height="50" relative="1" as="geometry">
            <mxPoint x="148" y="212" as="sourcePoint" />
            <mxPoint x="212" y="158" as="targetPoint" />
          </mxGeometry>
        </mxCell>
        <mxCell id="T_nC6chkK_L7ADHdv6Io-14" value="" style="endArrow=none;html=1;rounded=0;entryX=0.5;entryY=0;entryDx=0;entryDy=0;exitX=1;exitY=1;exitDx=0;exitDy=0;" edge="1" parent="1" source="T_nC6chkK_L7ADHdv6Io-2" target="T_nC6chkK_L7ADHdv6Io-4">
          <mxGeometry width="50" height="50" relative="1" as="geometry">
            <mxPoint x="92" y="268" as="sourcePoint" />
            <mxPoint x="60" y="300" as="targetPoint" />
          </mxGeometry>
        </mxCell>
        <mxCell id="T_nC6chkK_L7ADHdv6Io-15" value="" style="endArrow=none;html=1;rounded=0;entryX=0;entryY=1;entryDx=0;entryDy=0;exitX=0.5;exitY=0;exitDx=0;exitDy=0;" edge="1" parent="1" source="T_nC6chkK_L7ADHdv6Io-5" target="T_nC6chkK_L7ADHdv6Io-4">
          <mxGeometry width="50" height="50" relative="1" as="geometry">
            <mxPoint x="148" y="268" as="sourcePoint" />
            <mxPoint x="170" y="300" as="targetPoint" />
          </mxGeometry>
        </mxCell>
        <mxCell id="T_nC6chkK_L7ADHdv6Io-16" value="" style="endArrow=none;html=1;rounded=0;entryX=1;entryY=1;entryDx=0;entryDy=0;exitX=0.5;exitY=0;exitDx=0;exitDy=0;" edge="1" parent="1" source="T_nC6chkK_L7ADHdv6Io-6" target="T_nC6chkK_L7ADHdv6Io-4">
          <mxGeometry width="50" height="50" relative="1" as="geometry">
            <mxPoint x="120" y="410" as="sourcePoint" />
            <mxPoint x="142" y="368" as="targetPoint" />
          </mxGeometry>
        </mxCell>
        <mxCell id="T_nC6chkK_L7ADHdv6Io-17" value="" style="endArrow=none;html=1;rounded=0;entryX=1;entryY=1;entryDx=0;entryDy=0;exitX=0;exitY=0;exitDx=0;exitDy=0;" edge="1" parent="1" source="T_nC6chkK_L7ADHdv6Io-7" target="T_nC6chkK_L7ADHdv6Io-1">
          <mxGeometry width="50" height="50" relative="1" as="geometry">
            <mxPoint x="148" y="212" as="sourcePoint" />
            <mxPoint x="212" y="158" as="targetPoint" />
          </mxGeometry>
        </mxCell>
        <mxCell id="T_nC6chkK_L7ADHdv6Io-18" value="" style="endArrow=none;html=1;rounded=0;entryX=0.5;entryY=0;entryDx=0;entryDy=0;exitX=0;exitY=1;exitDx=0;exitDy=0;" edge="1" parent="1" source="T_nC6chkK_L7ADHdv6Io-7" target="T_nC6chkK_L7ADHdv6Io-8">
          <mxGeometry width="50" height="50" relative="1" as="geometry">
            <mxPoint x="352" y="202" as="sourcePoint" />
            <mxPoint x="268" y="158" as="targetPoint" />
          </mxGeometry>
        </mxCell>
        <mxCell id="T_nC6chkK_L7ADHdv6Io-19" value="" style="endArrow=none;html=1;rounded=0;entryX=0.5;entryY=0;entryDx=0;entryDy=0;exitX=1;exitY=1;exitDx=0;exitDy=0;" edge="1" parent="1" source="T_nC6chkK_L7ADHdv6Io-7" target="T_nC6chkK_L7ADHdv6Io-9">
          <mxGeometry width="50" height="50" relative="1" as="geometry">
            <mxPoint x="352" y="258" as="sourcePoint" />
            <mxPoint x="320" y="290" as="targetPoint" />
          </mxGeometry>
        </mxCell>
        <mxCell id="T_nC6chkK_L7ADHdv6Io-20" value="" style="endArrow=none;html=1;rounded=0;entryX=0.5;entryY=0;entryDx=0;entryDy=0;exitX=0;exitY=1;exitDx=0;exitDy=0;" edge="1" parent="1" source="T_nC6chkK_L7ADHdv6Io-9" target="T_nC6chkK_L7ADHdv6Io-10">
          <mxGeometry width="50" height="50" relative="1" as="geometry">
            <mxPoint x="408" y="258" as="sourcePoint" />
            <mxPoint x="430" y="290" as="targetPoint" />
          </mxGeometry>
        </mxCell>
        <mxCell id="T_nC6chkK_L7ADHdv6Io-21" value="" style="endArrow=none;html=1;rounded=0;entryX=0.5;entryY=0;entryDx=0;entryDy=0;exitX=1;exitY=1;exitDx=0;exitDy=0;" edge="1" parent="1" source="T_nC6chkK_L7ADHdv6Io-9" target="T_nC6chkK_L7ADHdv6Io-11">
          <mxGeometry width="50" height="50" relative="1" as="geometry">
            <mxPoint x="402" y="358" as="sourcePoint" />
            <mxPoint x="380" y="400" as="targetPoint" />
          </mxGeometry>
        </mxCell>
        <mxCell id="T_nC6chkK_L7ADHdv6Io-22" value="+" style="ellipse;whiteSpace=wrap;html=1;aspect=fixed;fontSize=27;fontStyle=1" vertex="1" parent="1">
          <mxGeometry x="230" y="610" width="80" height="80" as="geometry" />
        </mxCell>
        <mxCell id="T_nC6chkK_L7ADHdv6Io-23" value="1." style="text;html=1;align=center;verticalAlign=middle;whiteSpace=wrap;rounded=0;fontSize=22;" vertex="1" parent="1">
          <mxGeometry x="30" y="60" width="60" height="30" as="geometry" />
        </mxCell>
        <mxCell id="T_nC6chkK_L7ADHdv6Io-24" value="*" style="ellipse;whiteSpace=wrap;html=1;aspect=fixed;fontSize=27;fontStyle=1" vertex="1" parent="1">
          <mxGeometry x="90" y="720" width="80" height="80" as="geometry" />
        </mxCell>
        <mxCell id="T_nC6chkK_L7ADHdv6Io-25" value="c" style="ellipse;whiteSpace=wrap;html=1;aspect=fixed;fontSize=27;fontStyle=1" vertex="1" parent="1">
          <mxGeometry x="170" y="820" width="80" height="80" as="geometry" />
        </mxCell>
        <mxCell id="T_nC6chkK_L7ADHdv6Io-26" value="*" style="ellipse;whiteSpace=wrap;html=1;aspect=fixed;fontSize=27;fontStyle=1" vertex="1" parent="1">
          <mxGeometry x="20" y="820" width="80" height="80" as="geometry" />
        </mxCell>
        <mxCell id="T_nC6chkK_L7ADHdv6Io-27" value="a" style="ellipse;whiteSpace=wrap;html=1;aspect=fixed;fontSize=27;fontStyle=1" vertex="1" parent="1">
          <mxGeometry x="-30" y="930" width="80" height="80" as="geometry" />
        </mxCell>
        <mxCell id="T_nC6chkK_L7ADHdv6Io-28" value="b" style="ellipse;whiteSpace=wrap;html=1;aspect=fixed;fontSize=27;fontStyle=1" vertex="1" parent="1">
          <mxGeometry x="70" y="930" width="80" height="80" as="geometry" />
        </mxCell>
        <mxCell id="T_nC6chkK_L7ADHdv6Io-29" value="" style="endArrow=none;html=1;rounded=0;entryX=0;entryY=1;entryDx=0;entryDy=0;exitX=0.5;exitY=0;exitDx=0;exitDy=0;" edge="1" parent="1" source="T_nC6chkK_L7ADHdv6Io-27" target="T_nC6chkK_L7ADHdv6Io-26">
          <mxGeometry width="50" height="50" relative="1" as="geometry">
            <mxPoint x="48" y="798" as="sourcePoint" />
            <mxPoint x="70" y="830" as="targetPoint" />
          </mxGeometry>
        </mxCell>
        <mxCell id="T_nC6chkK_L7ADHdv6Io-30" value="" style="endArrow=none;html=1;rounded=0;entryX=1;entryY=1;entryDx=0;entryDy=0;exitX=0.5;exitY=0;exitDx=0;exitDy=0;" edge="1" parent="1" source="T_nC6chkK_L7ADHdv6Io-28" target="T_nC6chkK_L7ADHdv6Io-26">
          <mxGeometry width="50" height="50" relative="1" as="geometry">
            <mxPoint x="20" y="940" as="sourcePoint" />
            <mxPoint x="42" y="898" as="targetPoint" />
          </mxGeometry>
        </mxCell>
        <mxCell id="T_nC6chkK_L7ADHdv6Io-31" value="*" style="ellipse;whiteSpace=wrap;html=1;aspect=fixed;fontSize=27;fontStyle=1" vertex="1" parent="1">
          <mxGeometry x="370" y="720" width="80" height="80" as="geometry" />
        </mxCell>
        <mxCell id="T_nC6chkK_L7ADHdv6Io-32" value="f" style="ellipse;whiteSpace=wrap;html=1;aspect=fixed;fontSize=27;fontStyle=1" vertex="1" parent="1">
          <mxGeometry x="450" y="820" width="80" height="80" as="geometry" />
        </mxCell>
        <mxCell id="T_nC6chkK_L7ADHdv6Io-33" value="/" style="ellipse;whiteSpace=wrap;html=1;aspect=fixed;fontSize=27;fontStyle=1" vertex="1" parent="1">
          <mxGeometry x="300" y="820" width="80" height="80" as="geometry" />
        </mxCell>
        <mxCell id="T_nC6chkK_L7ADHdv6Io-34" value="d" style="ellipse;whiteSpace=wrap;html=1;aspect=fixed;fontSize=27;fontStyle=1" vertex="1" parent="1">
          <mxGeometry x="250" y="930" width="80" height="80" as="geometry" />
        </mxCell>
        <mxCell id="T_nC6chkK_L7ADHdv6Io-35" value="e" style="ellipse;whiteSpace=wrap;html=1;aspect=fixed;fontSize=27;fontStyle=1" vertex="1" parent="1">
          <mxGeometry x="350" y="930" width="80" height="80" as="geometry" />
        </mxCell>
        <mxCell id="T_nC6chkK_L7ADHdv6Io-36" value="" style="endArrow=none;html=1;rounded=0;entryX=0;entryY=1;entryDx=0;entryDy=0;exitX=0.5;exitY=0;exitDx=0;exitDy=0;" edge="1" parent="1" source="T_nC6chkK_L7ADHdv6Io-34" target="T_nC6chkK_L7ADHdv6Io-33">
          <mxGeometry width="50" height="50" relative="1" as="geometry">
            <mxPoint x="328" y="798" as="sourcePoint" />
            <mxPoint x="350" y="830" as="targetPoint" />
          </mxGeometry>
        </mxCell>
        <mxCell id="T_nC6chkK_L7ADHdv6Io-37" value="" style="endArrow=none;html=1;rounded=0;entryX=1;entryY=1;entryDx=0;entryDy=0;exitX=0.5;exitY=0;exitDx=0;exitDy=0;" edge="1" parent="1" source="T_nC6chkK_L7ADHdv6Io-35" target="T_nC6chkK_L7ADHdv6Io-33">
          <mxGeometry width="50" height="50" relative="1" as="geometry">
            <mxPoint x="300" y="940" as="sourcePoint" />
            <mxPoint x="322" y="898" as="targetPoint" />
          </mxGeometry>
        </mxCell>
        <mxCell id="T_nC6chkK_L7ADHdv6Io-38" value="" style="endArrow=none;html=1;rounded=0;entryX=0;entryY=1;entryDx=0;entryDy=0;exitX=0.5;exitY=0;exitDx=0;exitDy=0;" edge="1" parent="1" source="T_nC6chkK_L7ADHdv6Io-24" target="T_nC6chkK_L7ADHdv6Io-22">
          <mxGeometry width="50" height="50" relative="1" as="geometry">
            <mxPoint x="610" y="940" as="sourcePoint" />
            <mxPoint x="660" y="890" as="targetPoint" />
          </mxGeometry>
        </mxCell>
        <mxCell id="T_nC6chkK_L7ADHdv6Io-39" value="" style="endArrow=none;html=1;rounded=0;entryX=0;entryY=1;entryDx=0;entryDy=0;exitX=0.5;exitY=0;exitDx=0;exitDy=0;" edge="1" parent="1" source="T_nC6chkK_L7ADHdv6Io-26" target="T_nC6chkK_L7ADHdv6Io-24">
          <mxGeometry width="50" height="50" relative="1" as="geometry">
            <mxPoint x="140" y="730" as="sourcePoint" />
            <mxPoint x="252" y="688" as="targetPoint" />
          </mxGeometry>
        </mxCell>
        <mxCell id="T_nC6chkK_L7ADHdv6Io-40" value="" style="endArrow=none;html=1;rounded=0;entryX=1;entryY=1;entryDx=0;entryDy=0;exitX=0.5;exitY=0;exitDx=0;exitDy=0;" edge="1" parent="1" source="T_nC6chkK_L7ADHdv6Io-25" target="T_nC6chkK_L7ADHdv6Io-24">
          <mxGeometry width="50" height="50" relative="1" as="geometry">
            <mxPoint x="70" y="830" as="sourcePoint" />
            <mxPoint x="112" y="798" as="targetPoint" />
          </mxGeometry>
        </mxCell>
        <mxCell id="T_nC6chkK_L7ADHdv6Io-41" value="" style="endArrow=none;html=1;rounded=0;entryX=1;entryY=1;entryDx=0;entryDy=0;exitX=0;exitY=0;exitDx=0;exitDy=0;" edge="1" parent="1" source="T_nC6chkK_L7ADHdv6Io-31" target="T_nC6chkK_L7ADHdv6Io-22">
          <mxGeometry width="50" height="50" relative="1" as="geometry">
            <mxPoint x="220" y="830" as="sourcePoint" />
            <mxPoint x="168" y="798" as="targetPoint" />
          </mxGeometry>
        </mxCell>
        <mxCell id="T_nC6chkK_L7ADHdv6Io-42" value="" style="endArrow=none;html=1;rounded=0;entryX=0.5;entryY=0;entryDx=0;entryDy=0;exitX=0;exitY=1;exitDx=0;exitDy=0;" edge="1" parent="1" source="T_nC6chkK_L7ADHdv6Io-31" target="T_nC6chkK_L7ADHdv6Io-33">
          <mxGeometry width="50" height="50" relative="1" as="geometry">
            <mxPoint x="392" y="742" as="sourcePoint" />
            <mxPoint x="308" y="688" as="targetPoint" />
          </mxGeometry>
        </mxCell>
        <mxCell id="T_nC6chkK_L7ADHdv6Io-43" value="" style="endArrow=none;html=1;rounded=0;entryX=0.5;entryY=0;entryDx=0;entryDy=0;exitX=1;exitY=1;exitDx=0;exitDy=0;" edge="1" parent="1" source="T_nC6chkK_L7ADHdv6Io-31" target="T_nC6chkK_L7ADHdv6Io-32">
          <mxGeometry width="50" height="50" relative="1" as="geometry">
            <mxPoint x="392" y="798" as="sourcePoint" />
            <mxPoint x="350" y="830" as="targetPoint" />
          </mxGeometry>
        </mxCell>
        <mxCell id="T_nC6chkK_L7ADHdv6Io-44" value="2." style="text;html=1;align=center;verticalAlign=middle;whiteSpace=wrap;rounded=0;fontSize=22;" vertex="1" parent="1">
          <mxGeometry x="30" y="585" width="60" height="30" as="geometry" />
        </mxCell>
      </root>
    </mxGraphModel>
  </diagram>
  <diagram id="OFMcp1S-M5nIsLsbkbF3" name="Halaman-2">
    <mxGraphModel dx="716" dy="1005" grid="1" gridSize="10" guides="1" tooltips="1" connect="1" arrows="1" fold="1" page="1" pageScale="1" pageWidth="827" pageHeight="1169" math="0" shadow="0">
      <root>
        <mxCell id="0" />
        <mxCell id="1" parent="0" />
        <mxCell id="vHdeZk_O_reOLvICJqvn-1" value="A" style="rounded=0;whiteSpace=wrap;html=1;fontSize=19;fontStyle=1" vertex="1" parent="1">
          <mxGeometry x="350" y="360" width="120" height="60" as="geometry" />
        </mxCell>
        <mxCell id="vHdeZk_O_reOLvICJqvn-2" value="B" style="rounded=0;whiteSpace=wrap;html=1;fontSize=19;fontStyle=1" vertex="1" parent="1">
          <mxGeometry x="470" y="360" width="120" height="60" as="geometry" />
        </mxCell>
        <mxCell id="vHdeZk_O_reOLvICJqvn-3" value="C" style="rounded=0;whiteSpace=wrap;html=1;fontSize=19;fontStyle=1" vertex="1" parent="1">
          <mxGeometry x="590" y="360" width="120" height="60" as="geometry" />
        </mxCell>
        <mxCell id="vHdeZk_O_reOLvICJqvn-4" value="H" style="rounded=0;whiteSpace=wrap;html=1;fontSize=19;fontStyle=1" vertex="1" parent="1">
          <mxGeometry x="1190" y="360" width="120" height="60" as="geometry" />
        </mxCell>
        <mxCell id="vHdeZk_O_reOLvICJqvn-5" value="I" style="rounded=0;whiteSpace=wrap;html=1;fontSize=19;fontStyle=1" vertex="1" parent="1">
          <mxGeometry x="1310" y="360" width="120" height="60" as="geometry" />
        </mxCell>
        <mxCell id="vHdeZk_O_reOLvICJqvn-6" value="G" style="rounded=0;whiteSpace=wrap;html=1;fontSize=19;fontStyle=1" vertex="1" parent="1">
          <mxGeometry x="1070" y="360" width="120" height="60" as="geometry" />
        </mxCell>
        <mxCell id="vHdeZk_O_reOLvICJqvn-7" value="F" style="rounded=0;whiteSpace=wrap;html=1;fontSize=19;fontStyle=1" vertex="1" parent="1">
          <mxGeometry x="950" y="360" width="120" height="60" as="geometry" />
        </mxCell>
        <mxCell id="vHdeZk_O_reOLvICJqvn-9" value="E" style="rounded=0;whiteSpace=wrap;html=1;fontSize=19;fontStyle=1" vertex="1" parent="1">
          <mxGeometry x="830" y="360" width="120" height="60" as="geometry" />
        </mxCell>
        <mxCell id="vHdeZk_O_reOLvICJqvn-10" value="D" style="rounded=0;whiteSpace=wrap;html=1;fontSize=19;fontStyle=1" vertex="1" parent="1">
          <mxGeometry x="710" y="360" width="120" height="60" as="geometry" />
        </mxCell>
        <mxCell id="vHdeZk_O_reOLvICJqvn-11" value="J" style="rounded=0;whiteSpace=wrap;html=1;fontSize=19;fontStyle=1" vertex="1" parent="1">
          <mxGeometry x="1430" y="360" width="120" height="60" as="geometry" />
        </mxCell>
        <mxCell id="vHdeZk_O_reOLvICJqvn-12" value="INDEX" style="text;html=1;align=center;verticalAlign=middle;whiteSpace=wrap;rounded=0;fontSize=19;fontStyle=1" vertex="1" parent="1">
          <mxGeometry x="280" y="320" width="60" height="30" as="geometry" />
        </mxCell>
        <mxCell id="vHdeZk_O_reOLvICJqvn-13" value="2" style="text;html=1;align=center;verticalAlign=middle;whiteSpace=wrap;rounded=0;fontSize=19;fontStyle=1" vertex="1" parent="1">
          <mxGeometry x="620" y="320" width="60" height="30" as="geometry" />
        </mxCell>
        <mxCell id="vHdeZk_O_reOLvICJqvn-14" value="1" style="text;html=1;align=center;verticalAlign=middle;whiteSpace=wrap;rounded=0;fontSize=19;fontStyle=1" vertex="1" parent="1">
          <mxGeometry x="500" y="320" width="60" height="30" as="geometry" />
        </mxCell>
        <mxCell id="vHdeZk_O_reOLvICJqvn-15" value="0" style="text;html=1;align=center;verticalAlign=middle;whiteSpace=wrap;rounded=0;fontSize=19;fontStyle=1" vertex="1" parent="1">
          <mxGeometry x="380" y="320" width="60" height="30" as="geometry" />
        </mxCell>
        <mxCell id="vHdeZk_O_reOLvICJqvn-16" value="8" style="text;html=1;align=center;verticalAlign=middle;whiteSpace=wrap;rounded=0;fontSize=19;fontStyle=1" vertex="1" parent="1">
          <mxGeometry x="1340" y="320" width="60" height="30" as="geometry" />
        </mxCell>
        <mxCell id="vHdeZk_O_reOLvICJqvn-17" value="7" style="text;html=1;align=center;verticalAlign=middle;whiteSpace=wrap;rounded=0;fontSize=19;fontStyle=1" vertex="1" parent="1">
          <mxGeometry x="1211" y="320" width="60" height="30" as="geometry" />
        </mxCell>
        <mxCell id="vHdeZk_O_reOLvICJqvn-18" value="6" style="text;html=1;align=center;verticalAlign=middle;whiteSpace=wrap;rounded=0;fontSize=19;fontStyle=1" vertex="1" parent="1">
          <mxGeometry x="1090" y="320" width="60" height="30" as="geometry" />
        </mxCell>
        <mxCell id="vHdeZk_O_reOLvICJqvn-19" value="5" style="text;html=1;align=center;verticalAlign=middle;whiteSpace=wrap;rounded=0;fontSize=19;fontStyle=1" vertex="1" parent="1">
          <mxGeometry x="970" y="320" width="60" height="30" as="geometry" />
        </mxCell>
        <mxCell id="vHdeZk_O_reOLvICJqvn-20" value="4" style="text;html=1;align=center;verticalAlign=middle;whiteSpace=wrap;rounded=0;fontSize=19;fontStyle=1" vertex="1" parent="1">
          <mxGeometry x="860" y="320" width="60" height="30" as="geometry" />
        </mxCell>
        <mxCell id="vHdeZk_O_reOLvICJqvn-21" value="3" style="text;html=1;align=center;verticalAlign=middle;whiteSpace=wrap;rounded=0;fontSize=19;fontStyle=1" vertex="1" parent="1">
          <mxGeometry x="740" y="320" width="60" height="30" as="geometry" />
        </mxCell>
        <mxCell id="vHdeZk_O_reOLvICJqvn-22" value="9" style="text;html=1;align=center;verticalAlign=middle;whiteSpace=wrap;rounded=0;fontSize=19;fontStyle=1" vertex="1" parent="1">
          <mxGeometry x="1460" y="320" width="60" height="30" as="geometry" />
        </mxCell>
      </root>
    </mxGraphModel>
  </diagram>
</mxfile>
